<svg xmlns="http://www.w3.org/2000/svg" version="1.1" xmlns:xlink="http://www.w3.org/1999/xlink" xmlns:svgjs="http://svgjs.dev/svgjs" width="1000" height="1000" viewBox="0 0 1000 1000"><rect width="1000" height="1000" fill="#ffffff"></rect><g transform="matrix(0.7,0,0,0.7,150.07466666666664,343.5867559244793)"><svg viewBox="0 0 375 168" data-background-color="#ffffff" preserveAspectRatio="xMidYMid meet" height="448" width="1000" xmlns="http://www.w3.org/2000/svg" xmlns:xlink="http://www.w3.org/1999/xlink"><g id="tight-bounds" transform="matrix(1,0,0,1,-0.03976036071776434,-0.20719067382816547)"><svg viewBox="0 0 375.07952880859375 168.4140625" height="168.4140625" width="375.07952880859375"><g><svg></svg></g><g><svg viewBox="0 0 375.07952880859375 168.4140625" height="168.4140625" width="375.07952880859375"><g transform="matrix(1,0,0,1,-10.220239639282227,-42.47161865234375)"><path xmlns="http://www.w3.org/2000/svg" d="M10.22 204.728v-162.256h375.08v162.256l-152.455 0 0-5.247h147.207v-151.762h-364.584v151.762l13.189 0 0 5.247z" fill="#ea3c12" fill-rule="nonzero" stroke="none" stroke-width="1" stroke-linecap="butt" stroke-linejoin="miter" stroke-miterlimit="10" stroke-dasharray="" stroke-dashoffset="0" font-family="none" font-weight="none" font-size="none" text-anchor="none" style="mix-blend-mode: normal" data-fill-palette-color="tertiary"></path><g><path xmlns="http://www.w3.org/2000/svg" d="M50.028 209.033v0c0.879 0 1.836-0.28 2.872-0.84 1.031-0.556 1.784-1.071 2.258-1.546v0-4.24c-1.567-0.119-3.064-0.178-4.488-0.178-1.425 0-2.494 0.302-3.206 0.905-0.712 0.608-1.069 1.423-1.069 2.444v0c0 2.304 1.211 3.455 3.633 3.455zM49.993 210.886v0c-1.734 0-3.099-0.446-4.097-1.34-0.997-0.888-1.496-2.152-1.496-3.79 0-1.639 0.546-2.909 1.639-3.812v0c1.092-0.926 2.541-1.389 4.346-1.389 1.805 0 3.396 0.071 4.773 0.214v0c0-2.114-0.261-3.558-0.783-4.332-0.522-0.769-1.579-1.154-3.171-1.154-1.591 0-3.467 0.38-5.628 1.14v0l-0.535-1.782c2.209-0.807 4.204-1.211 5.985-1.211v0c2.351 0 3.942 0.522 4.773 1.568 0.831 1.045 1.247 2.874 1.247 5.486v0 7.481l0.285 2.707-1.817 0.178-0.356-2.137c-0.546 0.475-1.318 0.955-2.315 1.439-0.997 0.489-1.947 0.734-2.85 0.734zM62.782 193.644h1.816l0.072 1.425c2.304-1.092 4.215-1.639 5.735-1.639 1.52 0 2.714 0.522 3.584 1.568 0.864 1.045 1.297 2.47 1.296 4.274v0 11.293h-1.888v-11.293c0-1.164-0.285-2.126-0.855-2.885v0c-0.57-0.736-1.425-1.104-2.564-1.104-1.14 0-2.909 0.522-5.308 1.567v0 13.715h-1.888zM86.4 195.425h-4.132v-1.781h6.02v15.14h4.132v1.781h-10.437v-1.781h4.417zM87.184 190.224c-0.427 0-0.791-0.15-1.091-0.449-0.294-0.294-0.442-0.674-0.441-1.14 0-0.461 0.147-0.829 0.441-1.104 0.299-0.271 0.663-0.406 1.091-0.406 0.427 0 0.779 0.131 1.054 0.392 0.271 0.261 0.406 0.629 0.406 1.104 0 0.475-0.135 0.86-0.406 1.154-0.275 0.299-0.627 0.449-1.054 0.449zM96.944 193.644h1.781l0.107 1.069c1.187-0.855 2.102-1.282 2.743-1.283v0c1.567 0 2.648 0.511 3.242 1.532v0c1.33-1.021 2.494-1.532 3.491-1.532v0c1.544 0 2.6 0.475 3.171 1.425 0.57 0.95 0.855 2.411 0.855 4.382v0 11.328h-1.888v-11.328c0-1.354-0.142-2.358-0.428-3.014-0.285-0.651-0.831-0.976-1.639-0.976-0.807 0-1.805 0.38-2.992 1.14v0c0.142 0.807 0.214 1.757 0.214 2.85v0 5.913h-1.888v-5.913c0-1.354-0.142-2.351-0.428-2.993v0c-0.309-0.665-0.867-0.997-1.674-0.997-0.807 0-1.734 0.38-2.779 1.14v0 14.178h-1.888zM115.896 202.122c0-2.731 0.563-4.864 1.688-6.398 1.13-1.529 2.776-2.294 4.938-2.294 2.161 0 3.769 0.712 4.823 2.138 1.059 1.425 1.589 3.325 1.589 5.699v0l-0.107 1.782h-10.901c0.119 1.781 0.594 3.223 1.425 4.324 0.831 1.107 1.978 1.66 3.442 1.66 1.458 0 3.173-0.344 5.144-1.033v0l0.534 1.781c-1.924 0.736-3.729 1.104-5.415 1.105v0c-2.327 0-4.104-0.779-5.329-2.337-1.221-1.553-1.831-3.695-1.831-6.427zM122.664 195.247v0c-2.992 0-4.572 2.007-4.738 6.02v0h8.978c0-4.014-1.413-6.02-4.24-6.02zM161.992 208.855l1.853-15.211h1.852l-2.03 16.921h-3.776l-1.817-7.374h-0.143l-1.852 7.374h-3.74l-1.96-16.921h1.853l1.852 15.211h0.641l2.387-8.585h1.852l2.387 8.585zM175.458 195.425h-4.132v-1.781h6.02v15.14h4.132v1.781h-10.437v-1.781h4.417zM176.242 190.224c-0.427 0-0.788-0.15-1.083-0.449-0.299-0.294-0.449-0.674-0.449-1.14 0-0.461 0.15-0.829 0.449-1.104 0.294-0.271 0.655-0.406 1.083-0.406 0.427 0 0.779 0.131 1.054 0.392 0.271 0.261 0.406 0.629 0.406 1.104 0 0.475-0.135 0.86-0.406 1.154-0.275 0.299-0.627 0.449-1.054 0.449zM197.544 193.644v0h2.138c-1.662 2.684-3.574 5.32-5.735 7.908v0c1.472 2.09 3.455 5.094 5.949 9.013v0h-2.138c-1.9-3.087-3.622-5.712-5.165-7.873v0l-2.494 0.321v7.552h-1.888v-23.654h1.888v14.392l2.316-0.356c1.686-2.185 3.396-4.619 5.129-7.303zM211.081 195.425h-4.132v-1.781h6.02v15.14h4.133v1.781h-10.438v-1.781h4.417zM211.865 190.224c-0.427 0-0.788-0.15-1.083-0.449-0.299-0.294-0.449-0.674-0.449-1.14 0-0.461 0.15-0.829 0.449-1.104 0.294-0.271 0.655-0.406 1.083-0.406 0.427 0 0.779 0.131 1.054 0.392 0.271 0.261 0.406 0.629 0.407 1.104 0 0.475-0.135 0.86-0.407 1.154-0.275 0.299-0.627 0.449-1.054 0.449z" fill="#ea9937" fill-rule="nonzero" stroke="none" stroke-width="1" stroke-linecap="butt" stroke-linejoin="miter" stroke-miterlimit="10" stroke-dasharray="" stroke-dashoffset="0" font-family="none" font-weight="none" font-size="none" text-anchor="none" style="mix-blend-mode: normal" data-fill-palette-color="secondary"></path></g></g><g transform="matrix(1,0,0,1,29.331764404296877,55.111804033167104)"><svg viewBox="0 0 316.416 58.1904544336658" height="58.1904544336658" width="316.416"><g><svg viewBox="0 0 316.416 58.1904544336658" height="58.1904544336658" width="316.416"><g><svg viewBox="0 0 316.416 58.1904544336658" height="58.1904544336658" width="316.416"><g id="textblocktransform"><svg viewBox="0 0 316.416 58.1904544336658" height="58.1904544336658" width="316.416" id="textblock"><g><svg viewBox="0 0 316.416 58.1904544336658" height="58.1904544336658" width="316.416"><g transform="matrix(1,0,0,1,0,0)"><svg width="316.416" viewBox="-0.27000001072883606 -32.66999816894531 178.6699981689453 32.869998931884766" height="58.1904544336658" data-palette-color="#ea3c12"><path d="M8.86-7.03L6.57 0.2Q4.47 0 1.66 0L1.66 0-0.27 0 10.35-29.76Q11.06-31.76 11.06-32.09 11.06-32.42 11.04-32.5L11.04-32.5 11.06-32.54Q12.65-32.47 14.43-32.47L14.43-32.47Q15.89-32.47 17.94-32.52L17.94-32.52 17.97-32.47Q17.92-32.37 17.92-32.2L17.92-32.2Q17.92-31.74 18.65-29.74L18.65-29.74 29.49 0.07Q29 0.05 28.34 0.05L28.34 0.05Q28.34 0.05 27.08 0L27.08 0Q26.46 0 25.98 0L25.98 0 22.19 0 19.9-7.03 8.86-7.03ZM10.72-12.89L17.99-12.89 14.31-24.24 10.72-12.89ZM40.01 0L33.64 0Q33.79-0.83 33.79-1.81L33.79-1.81 33.79-32.47 38.67-32.47 51.61-12.11 51.61-30.81Q51.61-32.15 51.36-32.47L51.36-32.47 57.96-32.47Q57.83-31.49 57.83-30.32L57.83-30.32 57.83 0 52.76 0 40.01-19.56 40.01 0ZM67.35 0L67.35-32.57Q69.79-32.47 70.31-32.47L70.31-32.47 72.07-32.47Q73.36-32.47 74.14-32.67L74.14-32.67 74.12 0 67.35 0ZM94.96 0.02L94.91 0.1Q94.18 0 92.42 0L92.42 0 89.59 0Q88.76 0 88.22 0.05L88.22 0.05 88.2 0Q88.3-0.17 88.3-0.39 88.3-0.61 88.26-0.85 88.22-1.1 88.07-1.73 87.91-2.37 87.59-3.56L87.59-3.56 79.29-32.57Q80.85-32.47 83.07-32.47 85.3-32.47 85.95-32.67L85.95-32.67 91.72-10.57 97.33-32.57Q97.7-32.54 97.99-32.52L97.99-32.52 98.53-32.52Q99.33-32.47 100.55-32.47 101.77-32.47 103.07-32.67L103.07-32.67 108.78-10.57 113.69-32.57Q115.15-32.47 117.52-32.47 119.89-32.47 120.4-32.67L120.4-32.67 113.37-6.91Q112.03-2.47 111.96-1.64 111.88-0.81 111.88-0.49 111.88-0.17 111.98 0.02L111.98 0.02 111.93 0.1Q111.15 0 109.47 0L109.47 0Q108 0 106.8 0 105.61 0 105.07 0.05L105.07 0.05 105.05 0Q105.14-0.17 105.14-0.39 105.14-0.61 105.12-0.83 105.1-1.05 104.99-1.67 104.88-2.29 104.63-3.52L104.63-3.52 103.97-6.84 99.97-22.05 96.16-6.91Q94.99-2.25 94.94-1.54L94.94-1.54Q94.84-0.2 94.96 0.02L94.96 0.02ZM125.8 0L125.8-32.57Q128.24-32.47 128.75-32.47L128.75-32.47 130.51-32.47Q131.8-32.47 132.58-32.67L132.58-32.67 132.56 0 125.8 0ZM147.96-9.89L147.96 0.15Q146.28 0 143.66 0L143.66 0 141.74 0 141.74-32.57 142.71-32.52Q143.74-32.47 144.25-32.47L144.25-32.47 144.96-32.47Q147.11-32.47 147.96-32.67L147.96-32.67 147.96-18.87 157.85-32.57Q159.41-32.47 160.49-32.47L160.49-32.47 161.83-32.47Q164.34-32.47 165.42-32.67L165.42-32.67 155.99-20.36 165.27-1.95Q165.86-0.61 166.37 0L166.37 0 164.88 0Q159.73 0 158.46 0.2L158.46 0.2Q158.19-1.44 157.73-2.66L157.73-2.66 151.5-14.53 147.96-9.89ZM171.62 0L171.62-32.57Q174.06-32.47 174.57-32.47L174.57-32.47 176.33-32.47Q177.62-32.47 178.4-32.67L178.4-32.67 178.38 0 171.62 0Z" opacity="1" transform="matrix(1,0,0,1,0,0)" fill="#ea3c12" class="wordmark-text-0" data-fill-palette-color="primary" id="text-0"></path></svg></g></svg></g></svg></g></svg></g></svg></g></svg></g></svg></g><defs></defs></svg><rect width="375.07952880859375" height="168.4140625" fill="none" stroke="none" visibility="hidden"></rect></g></svg></g></svg>