<svg
      xmlns="http://www.w3.org/2000/svg"
      xmlnsSvgjs="http://svgjs.dev/svgjs"
      xmlnsXlink="http://www.w3.org/1999/xlink"
      width="2000"
      height="896"
      viewBox="0 0 2000 896"
    >
      <svg
        xmlns="http://www.w3.org/2000/svg"
        xmlnsXlink="http://www.w3.org/1999/xlink"
        width="2000"
        height="896"
        data-background-color="#ffffff"
        transform="translate(.213 1.105)"
        viewBox="0 0 375 168"
      >
        <svg
          width="375.08"
          height="168.414"
          transform="translate(-.04 -.207)"
          viewBox="0 0 375.08 168.414"
        >
          <svg></svg>
          <svg width="375.08" height="168.414" viewBox="0 0 375.08 168.414">
            <path
              xmlns="http://www.w3.org/2000/svg"
              fill="#fff"
              strokeMiterlimit="10"
              d="M10.22 204.728V42.472H385.3v162.256H232.845v-5.247h147.207V47.719H15.468v151.762h13.189v5.247z"
              data-fill-palette-color="tertiary"
              fontFamily="none"
              fontSize="none"
              fontWeight="none"
              textAnchor="none"
              transform="translate(-10.22 -42.472)"
            ></path>
            <path
              xmlns="http://www.w3.org/2000/svg"
              fill="#fff"
              strokeMiterlimit="10"
              d="M50.028 209.033c.879 0 1.836-.28 2.872-.84 1.031-.556 1.784-1.071 2.258-1.546v-4.24a59.37 59.37 0 00-4.488-.178c-1.425 0-2.494.302-3.206.905-.712.608-1.069 1.423-1.069 2.444 0 2.304 1.211 3.455 3.633 3.455zm-.035 1.853c-1.734 0-3.099-.446-4.097-1.34-.997-.888-1.496-2.152-1.496-3.79 0-1.639.546-2.909 1.639-3.812 1.092-.926 2.541-1.389 4.346-1.389 1.805 0 3.396.071 4.773.214 0-2.114-.261-3.558-.783-4.332-.522-.769-1.579-1.154-3.171-1.154-1.591 0-3.467.38-5.628 1.14l-.535-1.782c2.209-.807 4.204-1.211 5.985-1.211 2.351 0 3.942.522 4.773 1.568.831 1.045 1.247 2.874 1.247 5.486v7.481l.285 2.707-1.817.178-.356-2.137c-.546.475-1.318.955-2.315 1.439-.997.489-1.947.734-2.85.734zm12.789-17.242h1.816l.072 1.425c2.304-1.092 4.215-1.639 5.735-1.639 1.52 0 2.714.522 3.584 1.568.864 1.045 1.297 2.47 1.296 4.274v11.293h-1.888v-11.293c0-1.164-.285-2.126-.855-2.885-.57-.736-1.425-1.104-2.564-1.104-1.14 0-2.909.522-5.308 1.567v13.715h-1.888zm23.618 1.781h-4.132v-1.781h6.02v15.14h4.132v1.781H81.983v-1.781H86.4zm.784-5.201a1.49 1.49 0 01-1.091-.449c-.294-.294-.442-.674-.441-1.14 0-.461.147-.829.441-1.104a1.567 1.567 0 011.091-.406c.427 0 .779.131 1.054.392.271.261.406.629.406 1.104 0 .475-.135.86-.406 1.154a1.37 1.37 0 01-1.054.449zm9.76 3.42h1.781l.107 1.069c1.187-.855 2.102-1.282 2.743-1.283 1.567 0 2.648.511 3.242 1.532 1.33-1.021 2.494-1.532 3.491-1.532 1.544 0 2.6.475 3.171 1.425.57.95.855 2.411.855 4.382v11.328h-1.888v-11.328c0-1.354-.142-2.358-.428-3.014-.285-.651-.831-.976-1.639-.976-.807 0-1.805.38-2.992 1.14.142.807.214 1.757.214 2.85v5.913h-1.888v-5.913c0-1.354-.142-2.351-.428-2.993-.309-.665-.867-.997-1.674-.997-.807 0-1.734.38-2.779 1.14v14.178h-1.888zm18.952 8.478c0-2.731.563-4.864 1.688-6.398 1.13-1.529 2.776-2.294 4.938-2.294 2.161 0 3.769.712 4.823 2.138 1.059 1.425 1.589 3.325 1.589 5.699l-.107 1.782h-10.901c.119 1.781.594 3.223 1.425 4.324.831 1.107 1.978 1.66 3.442 1.66 1.458 0 3.173-.344 5.144-1.033l.534 1.781c-1.924.736-3.729 1.104-5.415 1.105-2.327 0-4.104-.779-5.329-2.337-1.221-1.553-1.831-3.695-1.831-6.427zm6.768-6.875c-2.992 0-4.572 2.007-4.738 6.02h8.978c0-4.014-1.413-6.02-4.24-6.02zm39.328 13.608l1.853-15.211h1.852l-2.03 16.921h-3.776l-1.817-7.374h-.143l-1.852 7.374h-3.74l-1.96-16.921h1.853l1.852 15.211h.641l2.387-8.585h1.852l2.387 8.585zm13.466-13.43h-4.132v-1.781h6.02v15.14h4.132v1.781h-10.437v-1.781h4.417zm.784-5.201c-.427 0-.788-.15-1.083-.449-.299-.294-.449-.674-.449-1.14 0-.461.15-.829.449-1.104a1.538 1.538 0 011.083-.406c.427 0 .779.131 1.054.392.271.261.406.629.406 1.104 0 .475-.135.86-.406 1.154a1.37 1.37 0 01-1.054.449zm21.302 3.42h2.138a69.17 69.17 0 01-5.735 7.908c1.472 2.09 3.455 5.094 5.949 9.013h-2.138c-1.9-3.087-3.622-5.712-5.165-7.873l-2.494.321v7.552h-1.888v-23.654h1.888v14.392l2.316-.356c1.686-2.185 3.396-4.619 5.129-7.303zm13.537 1.781h-4.132v-1.781h6.02v15.14h4.133v1.781h-10.438v-1.781h4.417zm.784-5.201c-.427 0-.788-.15-1.083-.449-.299-.294-.449-.674-.449-1.14 0-.461.15-.829.449-1.104a1.538 1.538 0 011.083-.406c.427 0 .779.131 1.054.392.271.261.406.629.407 1.104 0 .475-.135.86-.407 1.154a1.37 1.37 0 01-1.054.449z"
              data-fill-palette-color="secondary"
              fontFamily="none"
              fontSize="none"
              fontWeight="none"
              textAnchor="none"
              transform="translate(-10.22 -42.472)"
            ></path>
            <g transform="translate(29.332 55.112)">
              <svg width="316.416" height="58.19" viewBox="0 0 316.416 58.19">
                <svg width="316.416" height="58.19" viewBox="0 0 316.416 58.19">
                  <svg
                    width="316.416"
                    height="58.19"
                    viewBox="0 0 316.416 58.19"
                  >
                    <g>
                      <svg
                        width="316.416"
                        height="58.19"
                        viewBox="0 0 316.416 58.19"
                      >
                        <svg
                          width="316.416"
                          height="58.19"
                          viewBox="0 0 316.416 58.19"
                        >
                          <svg
                            width="316.416"
                            height="58.19"
                            data-palette-color="#ea3c12"
                            viewBox="-0.27 -32.67 178.67 32.87"
                          >
                            <path
                              fill="#fff"
                              d="M8.86-7.03L6.57.2Q4.47 0 1.66 0H-.27l10.62-29.76q.71-2 .71-2.33 0-.33-.02-.41l.02-.04q1.59.07 3.37.07 1.46 0 3.51-.05l.03.05q-.05.1-.05.27 0 .46.73 2.46L29.49.07Q29 .05 28.34.05L27.08 0H22.19L19.9-7.03H8.86zm1.86-5.86h7.27l-3.68-11.35-3.59 11.35zM40.01 0h-6.37q.15-.83.15-1.81v-30.66h4.88l12.94 20.36v-18.7q0-1.34-.25-1.66h6.6q-.13.98-.13 2.15V0h-5.07L40.01-19.56V0zm27.34 0v-32.57q2.44.1 2.96.1h1.76q1.29 0 2.07-.2L74.12 0h-6.77zm27.61.02l-.05.08q-.73-.1-2.49-.1h-2.83q-.83 0-1.37.05L88.2 0q.1-.17.1-.39t-.04-.46q-.04-.25-.19-.88-.16-.64-.48-1.83l-8.3-29.01q1.56.1 3.78.1 2.23 0 2.88-.2l5.77 22.1 5.61-22q.37.03.66.05h.54q.8.05 2.02.05t2.52-.2l5.71 22.1 4.91-22q1.46.1 3.83.1t2.88-.2l-7.03 25.76q-1.34 4.44-1.41 5.27-.08.83-.08 1.15 0 .32.1.51l-.05.08q-.78-.1-2.46-.1h-2.67q-1.19 0-1.73.05l-.02-.05q.09-.17.09-.39t-.02-.44q-.02-.22-.13-.84t-.36-1.85l-.66-3.32-4-15.21-3.81 15.14q-1.17 4.66-1.22 5.37-.1 1.34.02 1.56zM125.8 0v-32.57q2.44.1 2.95.1h1.76q1.29 0 2.07-.2L132.56 0h-6.76zm22.16-9.89V.15q-1.68-.15-4.3-.15h-1.92v-32.57l.97.05q1.03.05 1.54.05h.71q2.15 0 3-.2v13.8l9.89-13.7q1.56.1 2.64.1h1.34q2.51 0 3.59-.2l-9.43 12.31 9.28 18.41q.59 1.34 1.1 1.95h-1.49q-5.15 0-6.42.2-.27-1.64-.73-2.86l-6.23-11.87-3.54 4.64zM171.62 0v-32.57q2.44.1 2.95.1h1.76q1.29 0 2.07-.2L178.38 0h-6.76z"
                              className="wordmark-text-0"
                              data-fill-palette-color="primary"
                              opacity="1"
                            ></path>
                          </svg>
                        </svg>
                      </svg>
                    </g>
                  </svg>
                </svg>
              </svg>
            </g>
          </svg>
        </svg>
      </svg>
    </svg>